<?xml version="1.0" encoding="UTF-8" standalone="no"?>
<svg width="18px" height="18px" viewBox="0 0 18 18" version="1.1" xmlns="http://www.w3.org/2000/svg" xmlns:xlink="http://www.w3.org/1999/xlink">
    <!-- Generator: Sketch 41.2 (35397) - http://www.bohemiancoding.com/sketch -->
    <title>Close</title>
    <desc>Created with Sketch.</desc>
    <defs></defs>
    <g id="Symbols" stroke="none" stroke-width="1" fill="none" fill-rule="evenodd">
        <g id="add-button" transform="translate(-12.000000, -12.000000)" fill="#FFFFFF">
            <path d="M25.4032356,14.163852 L20.8994949,18.6724981 L16.3957543,14.163852 C16.0466271,13.8143445 15.50548,13.8143445 15.1563528,14.163852 L14.1613403,15.1599482 C13.8122131,15.5094557 13.8122131,16.0511922 14.1613403,16.4006997 L18.665081,20.9093458 L14.1787967,25.4005166 C13.8296695,25.7500241 13.8296695,26.2917606 14.1787967,26.6412681 L15.1738092,27.6373643 C15.5229363,27.9868718 16.0640835,27.9868718 16.4132106,27.6373643 L20.8994949,23.1112428 L25.4032356,27.619889 C25.7523628,27.9693964 26.2935099,27.9693964 26.6426371,27.619889 L27.6376496,26.6237927 C27.9867767,26.2742853 27.9867767,25.7325487 27.6376496,25.3830413 L23.1164525,20.8918705 L27.6201932,16.3832243 C27.9693204,16.0337168 27.9693204,15.4919803 27.6201932,15.1424728 L26.6251807,14.1463766 C26.2935099,13.8143445 25.7349064,13.8143445 25.4032356,14.163852 Z" id="Close" transform="translate(20.899495, 20.899495) rotate(-45.000000) translate(-20.899495, -20.899495) "></path>
        </g>
    </g>
</svg>