<?xml version="1.0" encoding="UTF-8" standalone="no"?>
<svg width="60px" height="61px" viewBox="0 0 60 61" version="1.1" xmlns="http://www.w3.org/2000/svg" xmlns:xlink="http://www.w3.org/1999/xlink">
    <!-- Generator: Sketch 41.2 (35397) - http://www.bohemiancoding.com/sketch -->
    <title>Group</title>
    <desc>Created with Sketch.</desc>
    <defs></defs>
    <g id="Create" stroke="none" stroke-width="1" fill="none" fill-rule="evenodd">
        <g id="Create---Step-#4---Saving" transform="translate(-158.000000, -303.000000)" fill="#FFFFFF">
            <g id="Group" transform="translate(158.000000, 303.000000)">
                <path d="M41.8599618,23.8852954 L28.267548,31.6323464 L18.1755138,25.8636171 C16.7489529,25.0465867 14.9356878,25.5417566 14.1269103,26.9683175 C13.3134169,28.3901625 13.8074078,30.2010696 15.2316108,31.015742 L26.7985439,37.6250812 C27.2630604,37.8915298 27.7700201,38.0165012 28.267548,38.0165012 C28.3760137,38.0165012 28.4774057,37.9846689 28.5811556,37.9728791 C28.7320645,37.9575524 28.8829734,37.9516576 29.0303454,37.9115724 C29.1435271,37.8832769 29.244919,37.8255071 29.3522058,37.781885 C29.4818932,37.7288311 29.6127595,37.6946408 29.736552,37.6250812 L29.7683844,37.6038596 L44.7979699,29.0350624 C46.2209938,28.2239269 46.7197007,26.4130199 45.9073862,24.9899959 C45.0950718,23.5657929 43.2818068,23.0670861 41.8599618,23.8852954 Z" id="Shape" transform="translate(30.016172, 30.753948) rotate(-128.000000) translate(-30.016172, -30.753948) "></path>
                <path d="M30.0161715,0.880447834 C13.5441715,0.880447834 0.142171519,14.2794478 0.142171519,30.7514478 C0.142171519,47.2264478 13.5441715,60.6274478 30.0161715,60.6274478 C46.4881715,60.6274478 59.8901715,47.2264478 59.8901715,30.7524478 C59.8901715,14.2804478 46.4881715,0.880447834 30.0161715,0.880447834 Z M30.0161715,55.8539478 C16.1779073,55.8539478 4.91773368,44.5926499 4.91773368,30.752137 C4.91773368,16.9127484 16.1790316,5.65594783 30.0161715,5.65594783 C43.8533114,5.65594783 55.1146094,16.9138728 55.1146094,30.752137 C55.1146094,44.5926499 43.8544358,55.8539478 30.0161715,55.8539478 Z" id="Shape"></path>
            </g>
        </g>
    </g>
</svg>