<?xml version="1.0" encoding="UTF-8" standalone="no"?>
<svg width="14px" height="14px" viewBox="0 0 14 14" version="1.1" xmlns="http://www.w3.org/2000/svg" xmlns:xlink="http://www.w3.org/1999/xlink">
    <!-- Generator: Sketch 41.2 (35397) - http://www.bohemiancoding.com/sketch -->
    <title>Close</title>
    <desc>Created with Sketch.</desc>
    <defs></defs>
    <g id="Symbols" stroke="none" stroke-width="1" fill="none" fill-rule="evenodd">
        <g id="translation---swipe-left" transform="translate(-347.000000, -16.000000)" fill="#FFFFFF">
            <g id="translation---swipe-right" transform="translate(-31.000000, 0.000000)">
                <g id="Cross" transform="translate(363.000000, 1.000000)">
                    <path d="M26.5037406,15.264357 L22,19.7730032 L17.4962594,15.264357 C17.1471322,14.9148496 16.605985,14.9148496 16.2568579,15.264357 L15.2618454,16.2604533 C14.9127182,16.6099607 14.9127182,17.1516973 15.2618454,17.5012047 L19.765586,22.0098509 L15.2793017,26.5010217 C14.9301746,26.8505292 14.9301746,27.3922657 15.2793017,27.7417732 L16.2743142,28.7378694 C16.6234414,29.0873769 17.1645885,29.0873769 17.5137157,28.7378694 L22,24.2117479 L26.5037406,28.720394 C26.8528678,29.0699015 27.394015,29.0699015 27.7431421,28.720394 L28.7381546,27.7242978 C29.0872818,27.3747903 29.0872818,26.8330538 28.7381546,26.4835463 L24.2169576,21.9923755 L28.7206983,17.4837294 C29.0698254,17.1342219 29.0698254,16.5924854 28.7206983,16.2429779 L27.7256858,15.2468817 C27.394015,14.9148496 26.8354115,14.9148496 26.5037406,15.264357 Z" id="Close"></path>
                </g>
            </g>
        </g>
    </g>
</svg>