<?xml version="1.0" encoding="UTF-8" standalone="no"?>
<svg width="16px" height="16px" viewBox="0 0 16 16" version="1.1" xmlns="http://www.w3.org/2000/svg" xmlns:xlink="http://www.w3.org/1999/xlink">
    <!-- Generator: Sketch 41.2 (35397) - http://www.bohemiancoding.com/sketch -->
    <title>Group 2</title>
    <desc>Created with Sketch.</desc>
    <defs></defs>
    <g id="Symbols" stroke="none" stroke-width="1" fill="none" fill-rule="evenodd">
        <g id="translation---swipe-right" transform="translate(-15.000000, -15.000000)" fill="#FFFFFF">
            <g id="Pencil" transform="translate(1.000000, 1.000000)">
                <g id="Group-2" transform="translate(14.000000, 14.000000)">
                    <path d="M10.7775508,2.41586253 C10.7498796,2.38832186 10.7048233,2.38832186 10.6768624,2.41586253 L2.44243555,10.5581458 C2.41461948,10.585543 2.41461948,10.6300097 2.44243555,10.6574069 L5.22505697,13.4091785 C5.23896501,13.4228054 5.25721931,13.4296905 5.2754736,13.4296905 C5.29358303,13.4296905 5.31183733,13.4228054 5.32574536,13.4091785 L13.5603171,5.26675181 C13.5737905,5.25355524 13.581324,5.23576856 13.581324,5.2169778 C13.581324,5.19818703 13.5737905,5.18040035 13.5603171,5.16720378 L10.7775508,2.41586253 Z" id="Shape"></path>
                    <path d="M15.586832,1.30818165 L14.6713645,0.402925685 C14.4085606,0.143154088 14.0591212,0 13.6873709,0 C13.3159105,0 12.9663262,0.143154088 12.7036671,0.402925685 L11.7881996,1.30818165 C11.7747262,1.32137822 11.7671927,1.3391649 11.7671927,1.35795567 C11.7671927,1.37660299 11.7747262,1.39438967 11.7881996,1.40758624 L14.570821,4.15907093 C14.5841495,4.1722675 14.6024038,4.17972643 14.6212376,4.17972643 C14.6402163,4.17972643 14.6581809,4.1722675 14.6713645,4.15907093 L15.586832,3.25381497 C15.849636,2.99389993 15.9943665,2.64849407 15.9943665,2.28085487 C15.9943665,1.91350254 15.849636,1.56809669 15.586832,1.30818165 Z" id="Shape"></path>
                    <path d="M1.45685019,11.6361344 C1.43917539,11.618778 1.41396708,11.6114625 1.38962801,11.6176305 C1.36543382,11.6233681 1.3461654,11.6412982 1.33877675,11.664966 L0.00882076596,15.8527251 C0.000852620061,15.8782576 0.00795151368,15.9056548 0.0272199392,15.9241587 C0.0408382249,15.9372119 0.0586578967,15.944097 0.0767673191,15.944097 C0.0845905897,15.944097 0.0927036109,15.9425192 0.100526881,15.9399372 L4.21310429,14.5038062 C4.23613948,14.4957735 4.25337965,14.4768393 4.25874004,14.4530281 C4.26410043,14.4295038 4.25700153,14.4046885 4.23961649,14.3877625 L1.45685019,11.6361344 Z" id="Shape"></path>
                </g>
            </g>
        </g>
    </g>
</svg>