<?xml version="1.0" encoding="UTF-8" standalone="no"?>
<svg width="178px" height="79px" viewBox="0 0 178 79" version="1.1" xmlns="http://www.w3.org/2000/svg" xmlns:xlink="http://www.w3.org/1999/xlink">
    <!-- Generator: Sketch 41.2 (35397) - http://www.bohemiancoding.com/sketch -->
    <title>Group 2</title>
    <desc>Created with Sketch.</desc>
    <defs></defs>
    <g id="Home-Screen---Logged-Out" stroke="none" stroke-width="1" fill="none" fill-rule="evenodd">
        <g id="Home" transform="translate(-99.000000, -240.000000)" fill="#000000">
            <g id="Group-2" transform="translate(99.000000, 240.000000)">
                <path d="M0.2465,3.866 C0.2465,3.33799736 0.394998515,2.90900165 0.692,2.579 C0.989001485,2.24899835 1.40149736,2.084 1.9295,2.084 C2.39150231,2.084 2.78749835,2.23249852 3.1175,2.5295 C3.44750165,2.82650148 3.6125,3.20599769 3.6125,3.668 L3.6125,9.5585 C3.6125,11.5055097 3.64549967,13.4689901 3.7115,15.449 C3.97550132,14.0629931 4.37149736,12.5120086 4.8995,10.796 C5.42750264,9.07999142 6.12049571,7.46300759 6.9785,5.945 C7.83650429,4.42699241 8.89249373,3.15650512 10.1465,2.1335 C11.4005063,1.11049488 12.9184911,0.599 14.7005,0.599 C17.2085125,0.599 19.2544921,1.50649092 20.8385,3.3215 C22.4225079,5.13650907 23.6434957,7.31448729 24.5015,9.8555 C25.3595043,12.3965127 25.9369985,15.0364863 26.234,17.7755 C26.5310015,20.5145137 26.6795,22.7749911 26.6795,24.557 C26.6795,25.8770066 26.6465003,27.2959924 26.5805,28.814 C26.5144997,30.3320076 26.3660012,31.8499924 26.135,33.368 C25.9039988,34.8860076 25.6070018,36.3709927 25.244,37.823 C24.8809982,39.2750073 24.402503,40.5949941 23.8085,41.783 C23.412498,42.575004 22.8350038,43.4824949 22.076,44.5055 C21.3169962,45.5285051 20.4590048,46.4854955 19.502,47.3765 C18.5449952,48.2675045 17.5550051,49.0264969 16.532,49.6535 C15.5089949,50.2805031 14.5025049,50.594 13.5125,50.594 C12.1924934,50.594 11.2190031,50.1485045 10.592,49.2575 C9.96499686,48.3664955 9.48650165,47.3600056 9.1565,46.238 C9.28850066,45.7759977 9.50299851,45.3800016 9.8,45.05 C10.0970015,44.7199983 10.5094974,44.555 11.0375,44.555 L12.6215,45.842 L12.5225,45.842 L13.9085,47.03 C15.8225096,47.03 17.4064937,46.0895094 18.6605,44.2085 C19.9145063,42.3274906 20.8879965,40.1495124 21.581,37.6745 C22.2740035,35.1994876 22.7524987,32.7245124 23.0165,30.2495 C23.2805013,27.7744876 23.4125,25.8770066 23.4125,24.557 C23.4125,23.1049927 23.2970012,21.2075117 23.066,18.8645 C22.8349988,16.5214883 22.3895033,14.2280112 21.7295,11.984 C21.0694967,9.73998878 20.1125063,7.80950809 18.8585,6.1925 C17.6044937,4.57549191 15.9545102,3.767 13.9085,3.767 C12.3244921,3.767 11.0045053,4.77348993 9.9485,6.7865 C8.89249472,8.79951006 8.0345033,11.3404847 7.3745,14.4095 C6.7144967,17.4785153 6.21950165,20.8444817 5.8895,24.5075 C5.55949835,28.1705183 5.32850066,31.6684833 5.1965,35.0015 C5.06449934,38.3345167 4.9985,41.2714873 4.9985,43.8125 L4.9985,48.812 L5.0975,49.505 L4.1075,50.495 L3.2165,50.495 L1.6325,49.208 C1.10449736,41.6179621 0.74150099,34.0610376 0.5435,26.537 C0.34549901,19.0129624 0.2465,11.4560379 0.2465,3.866 Z M28.9565,32.972 L28.9565,27.5765 C28.9565,26.2894936 29.0059995,24.9530069 29.105,23.567 C29.2040005,22.1809931 29.3194993,20.8940059 29.4515,19.706 C29.5835007,18.5179941 29.7814987,17.5445038 30.0455,16.7855 C30.3095013,16.0264962 30.639498,15.647 31.0355,15.647 C31.431502,15.647 31.8109982,15.7624988 32.174,15.9935 C32.5370018,16.2245012 32.7185,16.5709977 32.7185,17.033 C32.7185,19.7390135 32.6525007,22.395487 32.5205,25.0025 C32.3884993,27.609513 32.3225,30.2659865 32.3225,32.972 C32.3225,35.2160112 32.5369979,37.4764886 32.966,39.7535 C33.3950021,42.0305114 33.6095,44.1259904 33.6095,46.04 C33.6095,46.5020023 33.510501,46.9639977 33.3125,47.426 C33.114499,47.8880023 32.7515026,48.119 32.2235,48.119 C31.4974964,48.119 30.936502,47.4425068 30.5405,46.0895 C30.144498,44.7364932 29.8145013,43.1855087 29.5505,41.4365 C29.2864987,39.6874913 29.1215003,37.9880083 29.0555,36.338 C28.9894997,34.6879917 28.9565,33.566003 28.9565,32.972 Z M31.8275,4.955 C32.1575017,4.955 32.4874984,5.10349852 32.8175,5.4005 C33.1475016,5.69750149 33.3125,6.01099835 33.3125,6.341 C33.3125,6.86900264 33.0980021,7.33099802 32.669,7.727 C32.2399979,8.12300198 31.7615026,8.321 31.2335,8.321 C30.5734967,8.321 30.144501,8.13950182 29.9465,7.7765 C29.748499,7.41349818 29.6495,6.96800264 29.6495,6.44 L29.6495,5.846 C30.243503,5.25199703 30.9694957,4.955 31.8275,4.955 Z M49.4495,20.696 C49.4495,21.0260017 49.251502,21.3394985 48.8555,21.6365 C48.459498,21.9335015 48.1295013,22.1479993 47.8655,22.28 C47.073496,22.2139997 46.5620012,21.8510033 46.331,21.191 C46.0999988,20.5309967 45.9515003,19.805004 45.8855,19.013 C45.8194997,18.220996 45.7370005,17.5115031 45.638,16.8845 C45.5389995,16.2574969 45.192503,15.944 44.5985,15.944 C43.8724964,15.944 43.2455026,16.3234962 42.7175,17.0825 C42.1894974,17.8415038 41.7440018,18.7984942 41.381,19.9535 C41.0179982,21.1085058 40.7045013,22.3789931 40.4405,23.765 C40.1764987,25.1510069 39.9785007,26.5039934 39.8465,27.824 C39.7144993,29.1440066 39.6320002,30.3319947 39.599,31.388 C39.5659998,32.4440053 39.5495,33.2029977 39.5495,33.665 C39.5495,34.1930026 39.5824997,35.1499931 39.6485,36.536 C39.7145003,37.9220069 39.8629988,39.3409927 40.094,40.793 C40.3250012,42.2450073 40.6714977,43.5154946 41.1335,44.6045 C41.5955023,45.6935054 42.222496,46.238 43.0145,46.238 C43.8725043,46.238 44.7799952,45.6770056 45.737,44.555 C46.6940048,43.4329944 47.6179955,42.1790069 48.509,40.793 C49.4000045,39.4069931 50.2084964,38.1530056 50.9345,37.031 C51.6605036,35.9089944 52.2874974,35.348 52.8155,35.348 C53.211502,35.348 53.5744983,35.5129983 53.9045,35.843 C54.2345016,36.1730017 54.3995,36.535998 54.3995,36.932 C54.3995,37.5920033 54.003504,38.6149931 53.2115,40.001 C52.419496,41.3870069 51.4625056,42.7894929 50.3405,44.2085 C49.2184944,45.6275071 48.0470061,46.8649947 46.826,47.921 C45.6049939,48.9770053 44.5655043,49.505 43.7075,49.505 C41.9914914,49.505 40.6385049,48.9770053 39.6485,47.921 C38.658495,46.8649947 37.8995026,45.5780076 37.3715,44.06 C36.8434974,42.5419924 36.5135007,40.9415084 36.3815,39.2585 C36.2494993,37.5754916 36.1835,36.1070063 36.1835,34.853 C36.1835,34.060996 36.2164997,32.9555071 36.2825,31.5365 C36.3485003,30.1174929 36.480499,28.5830083 36.6785,26.933 C36.876501,25.2829918 37.1569982,23.6000086 37.52,21.884 C37.8830018,20.1679914 38.3779969,18.6335068 39.005,17.2805 C39.6320031,15.9274932 40.4074954,14.8055045 41.3315,13.9145 C42.2555046,13.0234955 43.3774934,12.578 44.6975,12.578 C45.687505,12.578 46.4959969,12.8584972 47.123,13.4195 C47.7500031,13.9805028 48.2449982,14.6734959 48.608,15.4985 C48.9710018,16.3235041 49.2019995,17.1979954 49.301,18.122 C49.4000005,19.0460046 49.4495,19.903996 49.4495,20.696 Z M53.3105,23.27 C52.7824974,23.27 52.320502,23.1545012 51.9245,22.9235 C51.528498,22.6924988 51.3305,22.280003 51.3305,21.686 C51.3305,21.2239977 51.6109972,20.8280017 52.172,20.498 C52.7330028,20.1679984 53.3764964,19.904001 54.1025,19.706 C54.8285036,19.507999 55.5544964,19.3430007 56.2805,19.211 C57.0065036,19.0789993 57.5344983,19.013 57.8645,19.013 C58.1285013,16.2409861 58.2934997,13.5185134 58.3595,10.8455 C58.4255003,8.17248663 58.6234983,5.48301353 58.9535,2.777 C59.0855007,1.72099472 59.6134954,1.193 60.5375,1.193 C60.933502,1.193 61.3129982,1.32499868 61.676,1.589 C62.0390018,1.85300132 62.2205,2.21599769 62.2205,2.678 C62.2205,5.3180132 62.0555016,7.97448664 61.7255,10.6475 C61.3954983,13.3205134 61.1645007,15.9769868 61.0325,18.617 C61.626503,18.4849993 62.3029962,18.3365008 63.062,18.1715 C63.8210038,18.0064992 64.497497,17.924 65.0915,17.924 C66.2135056,17.924 66.7745,18.4519947 66.7745,19.508 C66.7745,20.0360026 66.5270025,20.4319987 66.032,20.696 C65.5369975,20.9600013 64.9595033,21.1744992 64.2995,21.3395 C63.6394967,21.5045008 62.9795033,21.6199997 62.3195,21.686 C61.6594967,21.7520003 61.1645016,21.8179997 60.8345,21.884 C60.438498,26.9660254 60.2405,32.0149749 60.2405,37.031 C60.2405,39.0770102 60.3559988,41.0734903 60.587,43.0205 C60.8180012,44.9675097 61.1974974,46.9309901 61.7255,48.911 C61.923501,49.6370036 62.2864974,50.4454955 62.8145,51.3365 C63.3425026,52.2275045 63.6065,53.0359964 63.6065,53.762 C63.6065,54.8840056 63.0785053,55.445 62.0225,55.445 C61.824499,55.445 61.5770015,55.346001 61.28,55.148 C60.9829985,54.949999 60.7685007,54.7850007 60.6365,54.653 C59.844496,52.8709911 59.2010025,51.3200066 58.706,50 C58.2109975,48.6799934 57.8480012,47.3765064 57.617,46.0895 C57.3859988,44.8024936 57.2375003,43.4660069 57.1715,42.08 C57.1054997,40.6939931 57.0725,39.0440096 57.0725,37.13 C57.0725,34.6219875 57.0889998,32.163512 57.122,29.7545 C57.1550002,27.345488 57.270499,24.8870125 57.4685,22.379 C56.8084967,22.5110007 56.0990038,22.6924988 55.34,22.9235 C54.5809962,23.1545012 53.904503,23.27 53.3105,23.27 Z M69.1505,32.972 L69.1505,27.5765 C69.1505,26.2894936 69.1999995,24.9530069 69.299,23.567 C69.3980005,22.1809931 69.5134993,20.8940059 69.6455,19.706 C69.7775007,18.5179941 69.9754987,17.5445038 70.2395,16.7855 C70.5035013,16.0264962 70.833498,15.647 71.2295,15.647 C71.625502,15.647 72.0049982,15.7624988 72.368,15.9935 C72.7310018,16.2245012 72.9125,16.5709977 72.9125,17.033 C72.9125,19.7390135 72.8465007,22.395487 72.7145,25.0025 C72.5824993,27.609513 72.5165,30.2659865 72.5165,32.972 C72.5165,35.2160112 72.7309979,37.4764886 73.16,39.7535 C73.5890021,42.0305114 73.8035,44.1259904 73.8035,46.04 C73.8035,46.5020023 73.704501,46.9639977 73.5065,47.426 C73.308499,47.8880023 72.9455026,48.119 72.4175,48.119 C71.6914964,48.119 71.130502,47.4425068 70.7345,46.0895 C70.338498,44.7364932 70.0085013,43.1855087 69.7445,41.4365 C69.4804987,39.6874913 69.3155003,37.9880083 69.2495,36.338 C69.1834997,34.6879917 69.1505,33.566003 69.1505,32.972 Z M72.0215,4.955 C72.3515016,4.955 72.6814983,5.10349852 73.0115,5.4005 C73.3415016,5.69750149 73.5065,6.01099835 73.5065,6.341 C73.5065,6.86900264 73.2920021,7.33099802 72.863,7.727 C72.4339979,8.12300198 71.9555026,8.321 71.4275,8.321 C70.7674967,8.321 70.338501,8.13950182 70.1405,7.7765 C69.942499,7.41349818 69.8435,6.96800264 69.8435,6.44 L69.8435,5.846 C70.437503,5.25199703 71.1634957,4.955 72.0215,4.955 Z M76.9715,31.883 L76.9715,27.131 C76.9715,25.2169904 77.169498,23.3690089 77.5655,21.587 C77.961502,19.8049911 78.6379952,18.2705064 79.595,16.9835 C80.5520048,15.6964936 81.9874904,15.053 83.9015,15.053 C85.8815099,15.053 87.5149936,15.7459931 88.802,17.132 C90.0890064,18.5180069 91.0954964,20.1679904 91.8215,22.082 C92.5475036,23.9960096 93.0424987,25.9924896 93.3065,28.0715 C93.5705013,30.1505104 93.7025,31.9159927 93.7025,33.368 C93.7025,34.5560059 93.5540015,36.0574909 93.257,37.8725 C92.9599985,39.6875091 92.4650035,41.4199918 91.772,43.07 C91.0789965,44.7200082 90.1715056,46.1389941 89.0495,47.327 C87.9274944,48.5150059 86.5745079,49.109 84.9905,49.109 C83.4064921,49.109 82.0865053,48.4325068 81.0305,47.0795 C79.9744947,45.7264932 79.149503,44.1260092 78.5555,42.278 C77.961497,40.4299908 77.5490012,38.5325097 77.318,36.5855 C77.0869988,34.6384903 76.9715,33.0710059 76.9715,31.883 Z M90.5345,32.576 C90.5345,31.5859951 90.435501,30.2990079 90.2375,28.715 C90.039499,27.1309921 89.6765026,25.5965074 89.1485,24.1115 C88.6204974,22.6264926 87.9275043,21.3395054 87.0695,20.2505 C86.2114957,19.1614946 85.0895069,18.617 83.7035,18.617 C82.7794954,18.617 82.0865023,19.1284949 81.6245,20.1515 C81.1624977,21.1745051 80.7995013,22.3459934 80.5355,23.666 C80.2714987,24.9860066 80.1230002,26.2894936 80.09,27.5765 C80.0569998,28.8635064 80.0405,29.803997 80.0405,30.398 C80.0405,31.1240036 80.0899995,32.3119918 80.189,33.962 C80.2880005,35.6120082 80.5189982,37.2784916 80.882,38.9615 C81.2450018,40.6445084 81.7399969,42.1294936 82.367,43.4165 C82.9940031,44.7035064 83.8684944,45.347 84.9905,45.347 C86.1785059,45.347 87.1354964,44.8355051 87.8615,43.8125 C88.5875036,42.7894949 89.148498,41.5850069 89.5445,40.199 C89.940502,38.8129931 90.2044993,37.3940073 90.3365,35.942 C90.4685007,34.4899927 90.5345,33.368004 90.5345,32.576 Z M95.0885,21.785 C95.0885,21.3229977 95.2204987,20.9105018 95.4845,20.5475 C95.7485013,20.1844982 96.1444974,20.003 96.6725,20.003 C97.3325033,20.003 97.860498,20.8279918 98.2565,22.478 C98.652502,24.1280082 98.949499,26.0419891 99.1475,28.22 C99.345501,30.3980109 99.5104993,32.5099898 99.6425,34.556 C99.7745007,36.6020102 99.939499,38.020996 100.1375,38.813 C100.269501,38.0869964 100.385,37.0145071 100.484,35.5955 C100.583,34.1764929 100.731499,32.5925087 100.9295,30.8435 C101.127501,29.0944913 101.374999,27.3125091 101.672,25.4975 C101.969001,23.6824909 102.348498,22.0160076 102.8105,20.498 C103.272502,18.9799924 103.833497,17.7425048 104.4935,16.7855 C105.153503,15.8284952 105.978495,15.35 106.9685,15.35 C108.156506,15.35 109.047497,16.0099934 109.6415,17.33 C110.235503,18.6500066 110.697498,20.3494896 111.0275,22.4285 C111.357502,24.5075104 111.588499,26.8009875 111.7205,29.309 C111.852501,31.8170125 112.017499,34.2424883 112.2155,36.5855 C112.413501,38.9285117 112.693998,41.0239908 113.057,42.872 C113.420002,44.7200092 114.030496,46.039996 114.8885,46.832 C115.086501,47.030001 115.399998,47.2939984 115.829,47.624 C116.258002,47.9540017 116.670498,48.316998 117.0665,48.713 C117.462502,49.109002 117.825498,49.504998 118.1555,49.901 C118.485502,50.297002 118.6505,50.6269987 118.6505,50.891 C118.6505,51.9470053 118.155505,52.475 117.1655,52.475 C115.383491,52.475 113.964505,51.7160076 112.9085,50.198 C111.852495,48.6799924 111.027503,46.7495117 110.4335,44.4065 C109.839497,42.0634883 109.410501,39.5060139 109.1465,36.734 C108.882499,33.9619861 108.651501,31.3220125 108.4535,28.814 C108.255499,26.3059875 108.024501,24.1280092 107.7605,22.28 C107.496499,20.4319908 107.100503,19.2770023 106.5725,18.815 C106.308499,19.1450017 106.044501,19.9204939 105.7805,21.1415 C105.516499,22.3625061 105.269001,23.8309914 105.038,25.547 C104.806999,27.2630086 104.559501,29.1274899 104.2955,31.1405 C104.031499,33.1535101 103.751001,35.1169904 103.454,37.031 C103.156999,38.9450096 102.876501,40.7104919 102.6125,42.3275 C102.348499,43.9445081 102.051502,45.2149954 101.7215,46.139 C101.391498,46.4690016 101.028502,46.634 100.6325,46.634 C100.038497,46.634 99.4775026,46.1060053 98.9495,45.05 C98.4214974,43.9939947 97.9430021,42.6410083 97.514,40.991 C97.0849979,39.3409918 96.7220015,37.5260099 96.425,35.546 C96.1279985,33.5659901 95.880501,31.6520092 95.6825,29.804 C95.484499,27.9559908 95.3360005,26.3060073 95.237,24.854 C95.1379995,23.4019927 95.0885,22.379003 95.0885,21.785 Z M115.8785,35.051 C115.8785,33.6649931 116.026999,31.8335114 116.324,29.5565 C116.621001,27.2794886 117.148996,25.0355111 117.908,22.8245 C118.667004,20.6134889 119.656994,18.7160079 120.878,17.132 C122.099006,15.5479921 123.66649,14.756 125.5805,14.756 C126.438504,14.756 127.263496,14.9869977 128.0555,15.449 C128.847504,15.9110023 129.507497,16.438997 130.0355,17.033 L131.1245,16.538 C132.246506,16.538 132.8075,17.0659947 132.8075,18.122 L132.8075,21.3395 C132.8075,22.9565081 132.824,24.8044896 132.857,26.8835 C132.89,28.9625104 132.972499,31.1239888 133.1045,33.368 C133.236501,35.6120112 133.434499,37.6744906 133.6985,39.5555 C133.962501,41.4365094 134.308998,43.0039937 134.738,44.258 C135.167002,45.5120063 135.744496,46.139 136.4705,46.139 C136.800502,46.0069993 137.064499,45.842001 137.2625,45.644 C137.460501,45.445999 137.790498,45.347 138.2525,45.347 C138.714502,45.347 139.077499,45.5119983 139.3415,45.842 C139.605501,46.1720016 139.7375,46.5679977 139.7375,47.03 C139.7375,47.2940013 139.605501,47.5744985 139.3415,47.8715 C139.077499,48.1685015 138.780502,48.4489987 138.4505,48.713 C138.120498,48.9770013 137.774002,49.1914992 137.411,49.3565 C137.047998,49.5215008 136.734501,49.604 136.4705,49.604 C135.414495,49.604 134.523504,49.1255048 133.7975,48.1685 C133.071496,47.2114952 132.477502,46.0730066 132.0155,44.753 C131.553498,43.4329934 131.190501,42.0965068 130.9265,40.7435 C130.662499,39.3904932 130.4975,38.318004 130.4315,37.526 C130.101498,38.3840043 129.639503,39.4564936 129.0455,40.7435 C128.451497,42.0305064 127.742004,43.2679941 126.917,44.456 C126.091996,45.6440059 125.168005,46.6504959 124.145,47.4755 C123.121995,48.3005041 122.082505,48.713 121.0265,48.713 C119.904494,48.713 118.997003,48.1355058 118.304,46.9805 C117.610997,45.8254942 117.083002,44.4890076 116.72,42.971 C116.356998,41.4529924 116.126,39.9350076 116.027,38.417 C115.928,36.8989924 115.8785,35.7770036 115.8785,35.051 Z M121.4225,45.05 C122.214504,45.05 122.956997,44.6210043 123.65,43.763 C124.343003,42.9049957 124.986497,41.8160066 125.5805,40.496 C126.174503,39.1759934 126.718998,37.7075081 127.214,36.0905 C127.709002,34.4734919 128.121498,32.8895078 128.4515,31.3385 C128.781502,29.7874922 129.028999,28.3850063 129.194,27.131 C129.359001,25.8769937 129.4415,24.9200033 129.4415,24.26 L129.4415,21.092 C129.045498,20.695998 128.484504,20.0855041 127.7585,19.2605 C127.032496,18.4354959 126.405503,18.023 125.8775,18.023 C125.349497,18.023 124.838002,18.220998 124.343,18.617 C123.847998,19.013002 123.386002,19.4914972 122.957,20.0525 C122.527998,20.6135028 122.165001,21.2074969 121.868,21.8345 C121.570999,22.4615031 121.323501,22.972998 121.1255,23.369 L121.1255,23.27 C119.805493,27.2300198 119.1455,31.2229799 119.1455,35.249 C119.1455,35.5790017 119.162,36.2719947 119.195,37.328 C119.228,38.3840053 119.310499,39.4894942 119.4425,40.6445 C119.574501,41.7995058 119.788999,42.8224955 120.086,43.7135 C120.383001,44.6045045 120.828497,45.05 121.4225,45.05 Z M144.9845,51.089 C144.654498,51.089 144.390501,50.9240016 144.1925,50.594 C143.994499,50.2639984 143.846,49.8350026 143.747,49.307 C143.648,48.7789974 143.582,48.2015031 143.549,47.5745 C143.516,46.9474969 143.4995,46.3700026 143.4995,45.842 L143.4995,44.555 C143.4995,40.4629795 143.268502,36.1235229 142.8065,31.5365 C142.344498,26.9494771 141.552506,22.6760198 140.4305,18.716 C140.232499,18.517999 140.034501,18.2870013 139.8365,18.023 C139.638499,17.7589987 139.5395,17.4620016 139.5395,17.132 C139.5395,16.141995 140.067495,15.647 141.1235,15.647 C141.651503,15.647 142.162998,16.1914946 142.658,17.2805 C143.153002,18.3695054 143.598498,19.5904932 143.9945,20.9435 C144.390502,22.2965068 144.703999,23.6164936 144.935,24.9035 C145.166001,26.1905064 145.3145,27.031998 145.3805,27.428 C145.512501,26.437995 145.759998,25.1345081 146.123,23.5175 C146.486002,21.9004919 146.997497,20.3495074 147.6575,18.8645 C148.317503,17.3794926 149.142495,16.0925054 150.1325,15.0035 C151.122505,13.9144946 152.310493,13.37 153.6965,13.37 C154.092502,13.37 154.455498,13.5514982 154.7855,13.9145 C155.115502,14.2775018 155.2805,14.656998 155.2805,15.053 C155.2805,15.3830016 155.165001,15.6964985 154.934,15.9935 C154.702999,16.2905015 154.422502,16.5049993 154.0925,16.637 C152.904494,17.231003 151.898004,18.2704926 151.073,19.7555 C150.247996,21.2405074 149.571503,22.9729901 149.0435,24.953 C148.515497,26.9330099 148.086502,29.0449888 147.7565,31.289 C147.426498,33.5330112 147.195501,35.7604889 147.0635,37.9715 C146.931499,40.1825111 146.849,42.2449904 146.816,44.159 C146.783,46.0730096 146.7665,47.6569937 146.7665,48.911 C146.7665,49.6370036 146.684001,50.1814982 146.519,50.5445 C146.353999,50.9075018 145.842504,51.089 144.9845,51.089 Z M156.4685,18.716 C156.4685,17.5939944 156.996495,17.033 158.0525,17.033 C158.448502,17.033 158.827998,17.1484988 159.191,17.3795 C159.554002,17.6105012 159.7355,17.9899974 159.7355,18.518 C159.7355,19.8380066 159.719,21.3559914 159.686,23.072 C159.653,24.7880086 159.6365,26.6029904 159.6365,28.517 C159.6365,31.4870148 159.718999,34.4239855 159.884,37.328 C160.049001,40.2320145 160.428497,42.6409904 161.0225,44.555 C162.078505,42.2449884 162.969496,39.8525124 163.6955,37.3775 C164.421504,34.9024876 165.097997,32.3945127 165.725,29.8535 C166.352003,27.3124873 166.995497,24.7880125 167.6555,22.28 C168.315503,19.7719875 169.140495,17.3300119 170.1305,14.954 L171.2195,14.36 C171.813503,14.36 172.308498,14.8879947 172.7045,15.944 C173.100502,17.0000053 173.430499,18.3034922 173.6945,19.8545 C173.958501,21.4055078 174.156499,23.1214906 174.2885,25.0025 C174.420501,26.8835094 174.5195,28.6654916 174.5855,30.3485 C174.6515,32.0315084 174.6845,33.5164936 174.6845,34.8035 L174.6845,37.229 L174.5855,44.456 C175.113503,44.456 175.690997,44.5879987 176.318,44.852 C176.945003,45.1160013 177.2585,45.6109964 177.2585,46.337 C177.2585,47.0630036 176.994503,47.5084992 176.4665,47.6735 C175.938497,47.8385008 175.410503,47.921 174.8825,47.921 L174.8825,52.1285 C174.8825,54.0095094 174.816501,56.1049885 174.6845,58.415 C174.552499,60.7250115 174.338001,63.1009878 174.041,65.543 C173.743999,67.9850122 173.282003,70.1959901 172.655,72.176 C172.027997,74.1560099 171.236005,75.7894936 170.279,77.0765 C169.321995,78.3635064 168.150507,79.007 166.7645,79.007 C165.378493,79.007 164.256504,78.5945041 163.3985,77.7695 C162.540496,76.9444959 161.880502,75.9380059 161.4185,74.75 C160.956498,73.5619941 160.643001,72.3080066 160.478,70.988 C160.312999,69.6679934 160.2305,68.4800053 160.2305,67.424 C160.2305,66.4999954 160.329499,65.2955074 160.5275,63.8105 C160.725501,62.3254926 161.038998,60.7250086 161.468,59.009 C161.897002,57.2929914 162.424997,55.5605087 163.052,53.8115 C163.679003,52.0624913 164.421496,50.4950069 165.2795,49.109 C166.137504,47.7229931 167.077995,46.5845045 168.101,45.6935 C169.124005,44.8024955 170.262494,44.357 171.5165,44.357 L171.6155,44.357 C171.6155,40.5949812 171.549501,36.8825183 171.4175,33.2195 C171.285499,29.5564817 171.054502,25.8440188 170.7245,22.082 C170.526499,22.8080036 170.262502,23.9464922 169.9325,25.4975 C169.602498,27.0485078 169.190002,28.7974903 168.695,30.7445 C168.199998,32.6915097 167.655503,34.7044896 167.0615,36.7835 C166.467497,38.8625104 165.824003,40.7599914 165.131,42.476 C164.437997,44.1920086 163.728504,45.6109944 163.0025,46.733 C162.276496,47.8550056 161.517504,48.416 160.7255,48.416 C159.735495,48.416 158.960003,47.6570076 158.399,46.139 C157.837997,44.6209924 157.409001,42.7235114 157.112,40.4465 C156.814999,38.1694886 156.617,35.6945134 156.518,33.0215 C156.419,30.3484866 156.3695,27.8900112 156.3695,25.646 C156.3695,24.0619921 156.386,22.6760059 156.419,21.488 C156.452,20.2999941 156.4685,19.3760033 156.4685,18.716 Z M167.1605,75.542 C168.282506,73.8919917 169.156997,71.8790119 169.784,69.503 C170.411003,67.1269881 170.856499,64.6520129 171.1205,62.078 C171.384501,59.5039871 171.533,56.9465127 171.566,54.4055 C171.599,51.8644873 171.6155,49.6040099 171.6155,47.624 C170.361494,48.1520026 169.223005,49.2409918 168.2,50.891 C167.176995,52.5410083 166.286004,54.3724899 165.527,56.3855 C164.767996,58.3985101 164.190502,60.4114899 163.7945,62.4245 C163.398498,64.4375101 163.2005,66.0709937 163.2005,67.325 C163.2005,67.919003 163.25,68.6779954 163.349,69.602 C163.448,70.5260046 163.629499,71.4334955 163.8935,72.3245 C164.157501,73.2155045 164.536998,73.9909967 165.032,74.651 C165.527002,75.3110033 166.170496,75.641 166.9625,75.641 L167.1605,75.542 Z" id="Dictionary"></path>
            </g>
        </g>
    </g>
</svg>