<?xml version="1.0" encoding="UTF-8" standalone="no"?>
<svg width="12px" height="12px" viewBox="0 0 12 12" version="1.1" xmlns="http://www.w3.org/2000/svg" xmlns:xlink="http://www.w3.org/1999/xlink">
    <!-- Generator: Sketch 41.2 (35397) - http://www.bohemiancoding.com/sketch -->
    <title>Search</title>
    <desc>Created with Sketch.</desc>
    <defs></defs>
    <g id="Symbols" stroke="none" stroke-width="1" fill="none" fill-rule="evenodd">
        <g id="Search" transform="translate(-9.000000, -8.000000)" fill="#FFFFFF">
            <g>
                <path d="M20.5295791,17.9498173 L17.3786382,15.4444676 C17.9515366,14.6749673 18.309598,13.7086182 18.309598,12.6527923 C18.309598,10.0937565 16.2149385,8 13.654799,8 C11.0946596,8 9,10.0937565 9,12.6527923 C9,15.211828 11.0946596,17.3055845 13.654799,17.3055845 C14.7110803,17.3055845 15.6778463,16.9476774 16.4476784,16.3750261 L18.9541087,19.5246085 C19.5628131,20.1688413 20.3147422,20.0077831 20.6907068,19.5246085 C21.0845744,19.0414339 21.1740897,18.5582593 20.5295791,17.9498173 Z M13.654799,15.8739561 C11.8823948,15.8739561 10.4322459,14.4244324 10.4322459,12.6527923 C10.4322459,10.8811521 11.8823948,9.43162839 13.654799,9.43162839 C15.4272033,9.43162839 16.8773522,10.8811521 16.8773522,12.6527923 C16.8773522,14.4244324 15.4272033,15.8739561 13.654799,15.8739561 Z"></path>
            </g>
        </g>
    </g>
</svg>