<?xml version="1.0" encoding="utf-8"?>
<!-- Generator: Adobe Illustrator 19.2.0, SVG Export Plug-In . SVG Version: 6.00 Build 0)  -->
<svg version="1.1" id="Layer_1" xmlns="http://www.w3.org/2000/svg" xmlns:xlink="http://www.w3.org/1999/xlink" x="0px" y="0px"
	 viewBox="0 0 120 120" style="enable-background:new 0 0 120 120;" xml:space="preserve">
<style type="text/css">
	.st0{fill-rule:evenodd;clip-rule:evenodd;fill:#181616;}
	.st1{fill:#181616;}
</style>
<g>
	<path class="st0" d="M60,3.8c-32,0-58,26-58,58c0,25.6,16.6,47.4,39.7,55c2.9,0.5,4-1.3,4-2.8c0-1.4-0.1-6-0.1-10.8
		C29.4,106.7,26,96.4,26,96.4c-2.6-6.7-6.4-8.5-6.4-8.5c-5.3-3.6,0.4-3.5,0.4-3.5c5.8,0.4,8.9,6,8.9,6c5.2,8.9,13.6,6.3,16.9,4.8
		c0.5-3.7,2-6.3,3.7-7.8C36.5,85.9,23,81,23,58.7c0-6.3,2.3-11.5,6-15.6c-0.6-1.5-2.6-7.4,0.6-15.3c0,0,4.9-1.6,16,5.9
		c4.6-1.3,9.6-1.9,14.5-2c4.9,0,9.9,0.7,14.5,2c11.1-7.5,15.9-5.9,15.9-5.9c3.2,8,1.2,13.9,0.6,15.3c3.7,4.1,6,9.2,6,15.6
		C97,81,83.4,85.9,70.5,87.3c2.1,1.8,3.9,5.3,3.9,10.7c0,7.8-0.1,14-0.1,15.9c0,1.5,1,3.4,4,2.8c23-7.7,39.6-29.4,39.6-55
		C118,29.7,92,3.8,60,3.8z"/>
	<path class="st1" d="M24,87c-0.1,0.3-0.6,0.4-1,0.2c-0.4-0.2-0.7-0.6-0.5-0.9c0.1-0.3,0.6-0.4,1-0.2C23.9,86.3,24.1,86.7,24,87
		L24,87z M23.3,86.5"/>
	<path class="st1" d="M26.3,89.7c-0.3,0.3-0.8,0.1-1.2-0.3c-0.4-0.4-0.5-0.9-0.2-1.2c0.3-0.3,0.8-0.1,1.2,0.3
		C26.5,88.9,26.6,89.4,26.3,89.7L26.3,89.7z M25.8,89.1"/>
	<path class="st1" d="M28.6,93c-0.4,0.2-0.9,0-1.3-0.5c-0.4-0.5-0.4-1.1,0-1.4c0.4-0.2,0.9,0,1.3,0.5C29,92.1,29,92.7,28.6,93
		L28.6,93z M28.6,93"/>
	<path class="st1" d="M31.7,96.2c-0.3,0.4-1,0.3-1.5-0.2c-0.5-0.5-0.6-1.1-0.3-1.5c0.3-0.4,1-0.3,1.5,0.2
		C31.9,95.2,32.1,95.9,31.7,96.2L31.7,96.2z M31.7,96.2"/>
	<path class="st1" d="M36.1,98.1c-0.1,0.5-0.8,0.7-1.4,0.5c-0.7-0.2-1.1-0.7-1-1.2c0.1-0.5,0.8-0.7,1.5-0.5
		C35.8,97.1,36.2,97.6,36.1,98.1L36.1,98.1z M36.1,98.1"/>
	<path class="st1" d="M40.8,98.4c0,0.5-0.5,0.9-1.2,0.9c-0.7,0-1.3-0.4-1.3-0.8c0-0.5,0.5-0.9,1.2-0.9C40.2,97.6,40.8,98,40.8,98.4
		L40.8,98.4z M40.8,98.4"/>
	<path class="st1" d="M45.2,97.7c0.1,0.5-0.4,0.9-1.1,1.1c-0.7,0.1-1.3-0.2-1.4-0.6c-0.1-0.5,0.4-1,1.1-1.1
		C44.5,96.9,45.1,97.2,45.2,97.7L45.2,97.7z M45.2,97.7"/>
</g>
</svg>
